<mxfile host="app.diagrams.net" modified="2023-05-28T15:33:50.163Z" agent="Mozilla/5.0 (Windows NT 10.0; Win64; x64) AppleWebKit/537.36 (KHTML, like Gecko) Chrome/113.0.0.0 Safari/537.36" etag="encpirkJAUq9Z7fMHCS4" version="21.2.9" type="github">
  <diagram id="C5RBs43oDa-KdzZeNtuy" name="Page-1">
    <mxGraphModel dx="1050" dy="623" grid="1" gridSize="10" guides="1" tooltips="1" connect="1" arrows="1" fold="1" page="1" pageScale="1" pageWidth="827" pageHeight="1169" math="0" shadow="0">
      <root>
        <mxCell id="WIyWlLk6GJQsqaUBKTNV-0" />
        <mxCell id="WIyWlLk6GJQsqaUBKTNV-1" parent="WIyWlLk6GJQsqaUBKTNV-0" />
        <mxCell id="WIyWlLk6GJQsqaUBKTNV-2" value="" style="rounded=0;html=1;jettySize=auto;orthogonalLoop=1;fontSize=11;endArrow=block;endFill=0;endSize=8;strokeWidth=1;shadow=0;labelBackgroundColor=none;edgeStyle=orthogonalEdgeStyle;entryX=0.5;entryY=0;entryDx=0;entryDy=0;" parent="WIyWlLk6GJQsqaUBKTNV-1" source="WIyWlLk6GJQsqaUBKTNV-3" target="1EJW9W5FRKKplmfULvBn-2" edge="1">
          <mxGeometry relative="1" as="geometry">
            <mxPoint x="220" y="170" as="targetPoint" />
          </mxGeometry>
        </mxCell>
        <mxCell id="WIyWlLk6GJQsqaUBKTNV-3" value="Start" style="rounded=1;whiteSpace=wrap;html=1;fontSize=12;glass=0;strokeWidth=1;shadow=0;" parent="WIyWlLk6GJQsqaUBKTNV-1" vertex="1">
          <mxGeometry x="160" y="80" width="120" height="40" as="geometry" />
        </mxCell>
        <mxCell id="WIyWlLk6GJQsqaUBKTNV-10" value="Add New?" style="rhombus;whiteSpace=wrap;html=1;shadow=0;fontFamily=Helvetica;fontSize=12;align=center;strokeWidth=1;spacing=6;spacingTop=-4;" parent="WIyWlLk6GJQsqaUBKTNV-1" vertex="1">
          <mxGeometry x="170" y="250" width="100" height="80" as="geometry" />
        </mxCell>
        <mxCell id="WIyWlLk6GJQsqaUBKTNV-11" value="Stop" style="rounded=1;whiteSpace=wrap;html=1;fontSize=12;glass=0;strokeWidth=1;shadow=0;" parent="WIyWlLk6GJQsqaUBKTNV-1" vertex="1">
          <mxGeometry x="650" y="115" width="120" height="40" as="geometry" />
        </mxCell>
        <mxCell id="1EJW9W5FRKKplmfULvBn-28" style="edgeStyle=orthogonalEdgeStyle;rounded=0;orthogonalLoop=1;jettySize=auto;html=1;entryX=0.5;entryY=0;entryDx=0;entryDy=0;" edge="1" parent="WIyWlLk6GJQsqaUBKTNV-1" source="1EJW9W5FRKKplmfULvBn-0" target="1EJW9W5FRKKplmfULvBn-22">
          <mxGeometry relative="1" as="geometry" />
        </mxCell>
        <mxCell id="1EJW9W5FRKKplmfULvBn-0" value="" style="rounded=0;whiteSpace=wrap;html=1;" vertex="1" parent="WIyWlLk6GJQsqaUBKTNV-1">
          <mxGeometry x="370" y="265" width="120" height="50" as="geometry" />
        </mxCell>
        <mxCell id="1EJW9W5FRKKplmfULvBn-4" style="edgeStyle=orthogonalEdgeStyle;rounded=0;orthogonalLoop=1;jettySize=auto;html=1;entryX=0.5;entryY=0;entryDx=0;entryDy=0;" edge="1" parent="WIyWlLk6GJQsqaUBKTNV-1" source="1EJW9W5FRKKplmfULvBn-2" target="WIyWlLk6GJQsqaUBKTNV-10">
          <mxGeometry relative="1" as="geometry" />
        </mxCell>
        <mxCell id="1EJW9W5FRKKplmfULvBn-2" value="" style="shape=parallelogram;perimeter=parallelogramPerimeter;whiteSpace=wrap;html=1;fixedSize=1;" vertex="1" parent="WIyWlLk6GJQsqaUBKTNV-1">
          <mxGeometry x="160" y="170" width="120" height="40" as="geometry" />
        </mxCell>
        <mxCell id="1EJW9W5FRKKplmfULvBn-3" value="Asking What to Do?" style="text;html=1;strokeColor=none;fillColor=none;align=center;verticalAlign=middle;whiteSpace=wrap;rounded=0;" vertex="1" parent="WIyWlLk6GJQsqaUBKTNV-1">
          <mxGeometry x="190" y="175" width="60" height="30" as="geometry" />
        </mxCell>
        <mxCell id="1EJW9W5FRKKplmfULvBn-40" style="edgeStyle=orthogonalEdgeStyle;rounded=0;orthogonalLoop=1;jettySize=auto;html=1;" edge="1" parent="WIyWlLk6GJQsqaUBKTNV-1" source="1EJW9W5FRKKplmfULvBn-5">
          <mxGeometry relative="1" as="geometry">
            <mxPoint x="480" y="563" as="targetPoint" />
            <Array as="points">
              <mxPoint x="220" y="563" />
            </Array>
          </mxGeometry>
        </mxCell>
        <mxCell id="1EJW9W5FRKKplmfULvBn-5" value="" style="rounded=0;whiteSpace=wrap;html=1;" vertex="1" parent="WIyWlLk6GJQsqaUBKTNV-1">
          <mxGeometry x="160" y="500" width="120" height="50" as="geometry" />
        </mxCell>
        <mxCell id="1EJW9W5FRKKplmfULvBn-6" value="Add New Invoice" style="text;html=1;strokeColor=none;fillColor=none;align=center;verticalAlign=middle;whiteSpace=wrap;rounded=0;" vertex="1" parent="WIyWlLk6GJQsqaUBKTNV-1">
          <mxGeometry x="400" y="275" width="60" height="30" as="geometry" />
        </mxCell>
        <mxCell id="1EJW9W5FRKKplmfULvBn-7" value="" style="rhombus;whiteSpace=wrap;html=1;" vertex="1" parent="WIyWlLk6GJQsqaUBKTNV-1">
          <mxGeometry x="170" y="380" width="100" height="80" as="geometry" />
        </mxCell>
        <mxCell id="1EJW9W5FRKKplmfULvBn-8" value="N" style="endArrow=classic;html=1;rounded=0;exitX=0.5;exitY=1;exitDx=0;exitDy=0;entryX=0.5;entryY=0;entryDx=0;entryDy=0;" edge="1" parent="WIyWlLk6GJQsqaUBKTNV-1" source="WIyWlLk6GJQsqaUBKTNV-10" target="1EJW9W5FRKKplmfULvBn-7">
          <mxGeometry relative="1" as="geometry">
            <mxPoint x="360" y="300" as="sourcePoint" />
            <mxPoint x="460" y="300" as="targetPoint" />
          </mxGeometry>
        </mxCell>
        <mxCell id="1EJW9W5FRKKplmfULvBn-9" value="NO" style="edgeLabel;resizable=0;html=1;align=center;verticalAlign=middle;" connectable="0" vertex="1" parent="1EJW9W5FRKKplmfULvBn-8">
          <mxGeometry relative="1" as="geometry" />
        </mxCell>
        <mxCell id="1EJW9W5FRKKplmfULvBn-10" value="" style="endArrow=classic;html=1;rounded=0;exitX=1;exitY=0.5;exitDx=0;exitDy=0;entryX=0;entryY=0.5;entryDx=0;entryDy=0;" edge="1" parent="WIyWlLk6GJQsqaUBKTNV-1" source="WIyWlLk6GJQsqaUBKTNV-10" target="1EJW9W5FRKKplmfULvBn-0">
          <mxGeometry relative="1" as="geometry">
            <mxPoint x="360" y="300" as="sourcePoint" />
            <mxPoint x="460" y="300" as="targetPoint" />
          </mxGeometry>
        </mxCell>
        <mxCell id="1EJW9W5FRKKplmfULvBn-11" value="YES" style="edgeLabel;resizable=0;html=1;align=center;verticalAlign=middle;" connectable="0" vertex="1" parent="1EJW9W5FRKKplmfULvBn-10">
          <mxGeometry relative="1" as="geometry" />
        </mxCell>
        <mxCell id="1EJW9W5FRKKplmfULvBn-12" value="Show All?" style="text;html=1;strokeColor=none;fillColor=none;align=center;verticalAlign=middle;whiteSpace=wrap;rounded=0;" vertex="1" parent="WIyWlLk6GJQsqaUBKTNV-1">
          <mxGeometry x="190" y="405" width="60" height="30" as="geometry" />
        </mxCell>
        <mxCell id="1EJW9W5FRKKplmfULvBn-13" value="Show all saved Data" style="text;html=1;strokeColor=none;fillColor=none;align=center;verticalAlign=middle;whiteSpace=wrap;rounded=0;" vertex="1" parent="WIyWlLk6GJQsqaUBKTNV-1">
          <mxGeometry x="190" y="510" width="60" height="30" as="geometry" />
        </mxCell>
        <mxCell id="1EJW9W5FRKKplmfULvBn-16" value="" style="rhombus;whiteSpace=wrap;html=1;" vertex="1" parent="WIyWlLk6GJQsqaUBKTNV-1">
          <mxGeometry x="470" y="95" width="100" height="80" as="geometry" />
        </mxCell>
        <mxCell id="1EJW9W5FRKKplmfULvBn-17" value="Continue?" style="text;html=1;strokeColor=none;fillColor=none;align=center;verticalAlign=middle;whiteSpace=wrap;rounded=0;" vertex="1" parent="WIyWlLk6GJQsqaUBKTNV-1">
          <mxGeometry x="490" y="120" width="60" height="30" as="geometry" />
        </mxCell>
        <mxCell id="1EJW9W5FRKKplmfULvBn-18" value="" style="endArrow=classic;html=1;rounded=0;exitX=1;exitY=0.5;exitDx=0;exitDy=0;entryX=0;entryY=0.5;entryDx=0;entryDy=0;" edge="1" parent="WIyWlLk6GJQsqaUBKTNV-1" source="1EJW9W5FRKKplmfULvBn-16" target="WIyWlLk6GJQsqaUBKTNV-11">
          <mxGeometry relative="1" as="geometry">
            <mxPoint x="360" y="290" as="sourcePoint" />
            <mxPoint x="460" y="290" as="targetPoint" />
          </mxGeometry>
        </mxCell>
        <mxCell id="1EJW9W5FRKKplmfULvBn-19" value="NO" style="edgeLabel;resizable=0;html=1;align=center;verticalAlign=middle;" connectable="0" vertex="1" parent="1EJW9W5FRKKplmfULvBn-18">
          <mxGeometry relative="1" as="geometry" />
        </mxCell>
        <mxCell id="1EJW9W5FRKKplmfULvBn-20" value="" style="endArrow=classic;html=1;rounded=0;exitX=0;exitY=0.5;exitDx=0;exitDy=0;" edge="1" parent="WIyWlLk6GJQsqaUBKTNV-1" source="1EJW9W5FRKKplmfULvBn-16">
          <mxGeometry relative="1" as="geometry">
            <mxPoint x="360" y="290" as="sourcePoint" />
            <mxPoint x="220" y="135" as="targetPoint" />
            <Array as="points">
              <mxPoint x="250" y="135" />
            </Array>
          </mxGeometry>
        </mxCell>
        <mxCell id="1EJW9W5FRKKplmfULvBn-21" value="YES" style="edgeLabel;resizable=0;html=1;align=center;verticalAlign=middle;" connectable="0" vertex="1" parent="1EJW9W5FRKKplmfULvBn-20">
          <mxGeometry relative="1" as="geometry" />
        </mxCell>
        <mxCell id="1EJW9W5FRKKplmfULvBn-22" value="Orders" style="swimlane;fontStyle=0;childLayout=stackLayout;horizontal=1;startSize=30;horizontalStack=0;resizeParent=1;resizeParentMax=0;resizeLast=0;collapsible=1;marginBottom=0;whiteSpace=wrap;html=1;" vertex="1" parent="WIyWlLk6GJQsqaUBKTNV-1">
          <mxGeometry x="520" y="230" width="140" height="120" as="geometry" />
        </mxCell>
        <mxCell id="1EJW9W5FRKKplmfULvBn-23" value="Customer Name" style="text;strokeColor=none;fillColor=none;align=left;verticalAlign=middle;spacingLeft=4;spacingRight=4;overflow=hidden;points=[[0,0.5],[1,0.5]];portConstraint=eastwest;rotatable=0;whiteSpace=wrap;html=1;" vertex="1" parent="1EJW9W5FRKKplmfULvBn-22">
          <mxGeometry y="30" width="140" height="30" as="geometry" />
        </mxCell>
        <mxCell id="1EJW9W5FRKKplmfULvBn-24" value="Items Lists Array" style="text;strokeColor=none;fillColor=none;align=left;verticalAlign=middle;spacingLeft=4;spacingRight=4;overflow=hidden;points=[[0,0.5],[1,0.5]];portConstraint=eastwest;rotatable=0;whiteSpace=wrap;html=1;" vertex="1" parent="1EJW9W5FRKKplmfULvBn-22">
          <mxGeometry y="60" width="140" height="30" as="geometry" />
        </mxCell>
        <mxCell id="1EJW9W5FRKKplmfULvBn-25" value="Per Item Price" style="text;strokeColor=none;fillColor=none;align=left;verticalAlign=middle;spacingLeft=4;spacingRight=4;overflow=hidden;points=[[0,0.5],[1,0.5]];portConstraint=eastwest;rotatable=0;whiteSpace=wrap;html=1;" vertex="1" parent="1EJW9W5FRKKplmfULvBn-22">
          <mxGeometry y="90" width="140" height="30" as="geometry" />
        </mxCell>
        <mxCell id="1EJW9W5FRKKplmfULvBn-30" value="" style="rhombus;whiteSpace=wrap;html=1;" vertex="1" parent="WIyWlLk6GJQsqaUBKTNV-1">
          <mxGeometry x="320" y="380" width="106" height="80" as="geometry" />
        </mxCell>
        <mxCell id="1EJW9W5FRKKplmfULvBn-31" value="" style="endArrow=classic;html=1;rounded=0;exitX=1;exitY=0.5;exitDx=0;exitDy=0;entryX=0;entryY=0.5;entryDx=0;entryDy=0;" edge="1" parent="WIyWlLk6GJQsqaUBKTNV-1" source="1EJW9W5FRKKplmfULvBn-7" target="1EJW9W5FRKKplmfULvBn-30">
          <mxGeometry relative="1" as="geometry">
            <mxPoint x="360" y="290" as="sourcePoint" />
            <mxPoint x="460" y="290" as="targetPoint" />
          </mxGeometry>
        </mxCell>
        <mxCell id="1EJW9W5FRKKplmfULvBn-32" value="NO" style="edgeLabel;resizable=0;html=1;align=center;verticalAlign=middle;" connectable="0" vertex="1" parent="1EJW9W5FRKKplmfULvBn-31">
          <mxGeometry relative="1" as="geometry" />
        </mxCell>
        <mxCell id="1EJW9W5FRKKplmfULvBn-33" value="Search by Name?" style="text;html=1;strokeColor=none;fillColor=none;align=center;verticalAlign=middle;whiteSpace=wrap;rounded=0;" vertex="1" parent="WIyWlLk6GJQsqaUBKTNV-1">
          <mxGeometry x="343" y="405" width="60" height="30" as="geometry" />
        </mxCell>
        <mxCell id="1EJW9W5FRKKplmfULvBn-34" value="" style="endArrow=classic;html=1;rounded=0;exitX=0.5;exitY=1;exitDx=0;exitDy=0;entryX=0.374;entryY=1.167;entryDx=0;entryDy=0;entryPerimeter=0;" edge="1" parent="WIyWlLk6GJQsqaUBKTNV-1" source="1EJW9W5FRKKplmfULvBn-7" target="1EJW9W5FRKKplmfULvBn-25">
          <mxGeometry relative="1" as="geometry">
            <mxPoint x="360" y="280" as="sourcePoint" />
            <mxPoint x="460" y="280" as="targetPoint" />
            <Array as="points">
              <mxPoint x="220" y="480" />
              <mxPoint x="571" y="480" />
            </Array>
          </mxGeometry>
        </mxCell>
        <mxCell id="1EJW9W5FRKKplmfULvBn-35" value="YES" style="edgeLabel;resizable=0;html=1;align=center;verticalAlign=middle;" connectable="0" vertex="1" parent="1EJW9W5FRKKplmfULvBn-34">
          <mxGeometry relative="1" as="geometry" />
        </mxCell>
        <mxCell id="1EJW9W5FRKKplmfULvBn-36" style="edgeStyle=orthogonalEdgeStyle;rounded=0;orthogonalLoop=1;jettySize=auto;html=1;entryX=0.5;entryY=0;entryDx=0;entryDy=0;" edge="1" parent="WIyWlLk6GJQsqaUBKTNV-1" source="1EJW9W5FRKKplmfULvBn-25" target="1EJW9W5FRKKplmfULvBn-5">
          <mxGeometry relative="1" as="geometry">
            <Array as="points">
              <mxPoint x="280" y="335" />
              <mxPoint x="280" y="490" />
              <mxPoint x="220" y="490" />
            </Array>
          </mxGeometry>
        </mxCell>
        <mxCell id="1EJW9W5FRKKplmfULvBn-37" value="" style="endArrow=classic;html=1;rounded=0;exitX=0.5;exitY=1;exitDx=0;exitDy=0;entryX=0;entryY=0.5;entryDx=0;entryDy=0;" edge="1" parent="WIyWlLk6GJQsqaUBKTNV-1" source="1EJW9W5FRKKplmfULvBn-30" target="1EJW9W5FRKKplmfULvBn-39">
          <mxGeometry relative="1" as="geometry">
            <mxPoint x="360" y="280" as="sourcePoint" />
            <mxPoint x="373" y="520" as="targetPoint" />
            <Array as="points">
              <mxPoint x="373" y="530" />
            </Array>
          </mxGeometry>
        </mxCell>
        <mxCell id="1EJW9W5FRKKplmfULvBn-38" value="NO" style="edgeLabel;resizable=0;html=1;align=center;verticalAlign=middle;" connectable="0" vertex="1" parent="1EJW9W5FRKKplmfULvBn-37">
          <mxGeometry relative="1" as="geometry" />
        </mxCell>
        <mxCell id="1EJW9W5FRKKplmfULvBn-43" style="edgeStyle=orthogonalEdgeStyle;rounded=0;orthogonalLoop=1;jettySize=auto;html=1;entryX=0.5;entryY=1;entryDx=0;entryDy=0;" edge="1" parent="WIyWlLk6GJQsqaUBKTNV-1" source="1EJW9W5FRKKplmfULvBn-39" target="1EJW9W5FRKKplmfULvBn-16">
          <mxGeometry relative="1" as="geometry">
            <Array as="points">
              <mxPoint x="740" y="530" />
              <mxPoint x="740" y="175" />
            </Array>
          </mxGeometry>
        </mxCell>
        <mxCell id="1EJW9W5FRKKplmfULvBn-39" value="" style="ellipse;whiteSpace=wrap;html=1;aspect=fixed;" vertex="1" parent="WIyWlLk6GJQsqaUBKTNV-1">
          <mxGeometry x="460" y="500" width="60" height="60" as="geometry" />
        </mxCell>
        <mxCell id="1EJW9W5FRKKplmfULvBn-41" value="" style="endArrow=classic;html=1;rounded=0;exitX=1;exitY=0.5;exitDx=0;exitDy=0;entryX=0.209;entryY=1.113;entryDx=0;entryDy=0;entryPerimeter=0;" edge="1" parent="WIyWlLk6GJQsqaUBKTNV-1" source="1EJW9W5FRKKplmfULvBn-30" target="1EJW9W5FRKKplmfULvBn-25">
          <mxGeometry relative="1" as="geometry">
            <mxPoint x="360" y="290" as="sourcePoint" />
            <mxPoint x="460" y="290" as="targetPoint" />
            <Array as="points">
              <mxPoint x="549" y="420" />
            </Array>
          </mxGeometry>
        </mxCell>
        <mxCell id="1EJW9W5FRKKplmfULvBn-42" value="YES" style="edgeLabel;resizable=0;html=1;align=center;verticalAlign=middle;" connectable="0" vertex="1" parent="1EJW9W5FRKKplmfULvBn-41">
          <mxGeometry relative="1" as="geometry" />
        </mxCell>
      </root>
    </mxGraphModel>
  </diagram>
</mxfile>
